<svg width="1429" height="574" viewBox="0 0 1429 574" fill="none" xmlns="http://www.w3.org/2000/svg">
<g filter="url(#filter0_d_75_56)">
<path d="M14.2051 113V53.332H4V36.8281H41.5977V53.332H31.3926V113H14.2051ZM48.3828 113V36.8281H65.4727V63.8789H73.5781V36.8281H90.668V113H73.5781V80.1387H65.4727V113H48.3828ZM100.285 113V36.8281H134.66V53.4297H117.766V66.0273H133.977V82.1895H117.766V96.252H135.783V113H100.285ZM168.152 113V36.8281H184.754V113H168.152ZM193.59 113V36.8281H211.266L220.152 78.1367V36.8281H235.777V113H218.98L209.41 71.7402V113H193.59ZM265.805 113.781C257.96 113.781 252.296 111.828 248.812 107.922C245.362 104.016 243.637 97.7982 243.637 89.2695V86.4863H260.629V91.6133C260.629 93.599 260.922 95.1615 261.508 96.3008C262.126 97.4076 263.184 97.9609 264.682 97.9609C266.244 97.9609 267.318 97.554 267.904 96.7402C268.523 95.8939 268.832 94.6732 268.832 93.0781C268.832 90.9622 268.116 89.1719 266.684 87.707C265.284 86.2422 262.956 84.2565 259.701 81.75L252.279 75.9883C249.122 73.5469 246.892 70.8451 245.59 67.8828C244.288 64.9206 243.637 61.3236 243.637 57.0918C243.637 50.4837 245.329 45.3242 248.715 41.6133C252.133 37.9023 257.064 36.0469 263.51 36.0469C271.387 36.0469 276.97 38.0977 280.258 42.1992C283.578 46.3008 285.238 52.3229 285.238 60.2656H267.807V56.0664C267.807 53.2669 266.505 51.8672 263.9 51.8672C262.598 51.8672 261.638 52.2578 261.02 53.0391C260.401 53.7878 260.092 54.7643 260.092 55.9688C260.092 57.1732 260.368 58.3125 260.922 59.3867C261.508 60.4284 262.842 61.7956 264.926 63.4883L274.838 71.5449C278.451 74.4746 281.186 77.5508 283.041 80.7734C284.896 83.9961 285.824 88.179 285.824 93.3223C285.824 96.903 285.173 100.256 283.871 103.381C282.602 106.506 280.502 109.029 277.572 110.949C274.643 112.837 270.72 113.781 265.805 113.781ZM300.959 113V53.332H290.754V36.8281H328.352V53.332H318.146V113H300.959ZM334.355 113V36.8281H350.957V113H334.355ZM367.166 113V53.332H356.961V36.8281H394.559V53.332H384.354V113H367.166ZM421.217 113.781C414.055 113.781 408.782 111.779 405.396 107.775C402.011 103.739 400.318 97.8145 400.318 90.002V36.8281H417.018V89.8066C417.018 91.2389 417.099 92.6224 417.262 93.957C417.424 95.2591 417.799 96.3333 418.385 97.1797C418.971 98.026 419.915 98.4492 421.217 98.4492C422.551 98.4492 423.512 98.0423 424.098 97.2285C424.684 96.3822 425.042 95.2917 425.172 93.957C425.335 92.6224 425.416 91.2389 425.416 89.8066V36.8281H442.115V90.002C442.115 97.8145 440.423 103.739 437.037 107.775C433.652 111.779 428.378 113.781 421.217 113.781ZM458.08 113V53.332H447.875V36.8281H485.473V53.332H475.268V113H458.08ZM492.258 113V36.8281H526.633V53.4297H509.738V66.0273H525.949V82.1895H509.738V96.252H527.756V113H492.258ZM560.906 113V36.8281H595.281V53.4297H578.387V67.248H594.598V83.4102H578.387V113H560.906ZM624.625 113.781C617.594 113.781 612.304 111.665 608.756 107.434C605.208 103.169 603.434 97.2122 603.434 89.5625V58.5078C603.434 51.1185 605.24 45.5358 608.854 41.7598C612.499 37.9512 617.757 36.0469 624.625 36.0469C631.526 36.0469 636.783 37.9512 640.396 41.7598C644.01 45.5358 645.816 51.1185 645.816 58.5078V89.5625C645.816 97.2122 644.042 103.169 640.494 107.434C636.946 111.665 631.656 113.781 624.625 113.781ZM624.771 98.4492C626.399 98.4492 627.457 97.7168 627.945 96.252C628.434 94.7546 628.678 92.9642 628.678 90.8809V57.7266C628.678 56.1966 628.466 54.7643 628.043 53.4297C627.62 52.0625 626.562 51.3789 624.869 51.3789C623.209 51.3789 622.07 52.0137 621.451 53.2832C620.865 54.5202 620.572 56.0501 620.572 57.873V90.9785C620.572 93.2246 620.833 95.0312 621.354 96.3984C621.874 97.7656 623.014 98.4492 624.771 98.4492ZM654.75 113V36.8281H680.629C685.023 36.8281 688.376 37.7559 690.688 39.6113C693.031 41.4668 694.626 44.0221 695.473 47.2773C696.319 50.5 696.742 54.1947 696.742 58.3613C696.742 63.6022 696.026 67.7526 694.594 70.8125C693.161 73.8724 690.85 75.972 687.66 77.1113C690.557 77.5671 692.608 78.8691 693.812 81.0176C695.049 83.166 695.668 85.998 695.668 89.5137V113H678.627V88.3906C678.627 85.8841 678.106 84.3379 677.064 83.752C676.055 83.1335 674.411 82.8242 672.133 82.8242V113H654.75ZM672.23 67.9316H676.381C678.757 67.9316 679.945 65.3926 679.945 60.3145C679.945 57.2546 679.685 55.2363 679.164 54.2598C678.643 53.2507 677.667 52.7461 676.234 52.7461H672.23V67.9316Z" fill="#E144DC"/>
</g>
<rect x="995.023" y="143" width="319" height="198" fill="#E144DC"/>
<path d="M1050.6 283.898V207.726H1067.2V283.898H1050.6ZM1074.03 283.898V207.726H1097.71C1103.9 207.726 1108.54 209.451 1111.63 212.902C1114.76 216.32 1116.32 221.333 1116.32 227.941V258.41C1116.32 266.548 1114.9 272.83 1112.07 277.257C1109.24 281.684 1104.26 283.898 1097.13 283.898H1074.03ZM1091.32 268.712H1094.3C1097.45 268.712 1099.03 267.182 1099.03 264.123V229.552C1099.03 226.688 1098.64 224.848 1097.86 224.035C1097.11 223.188 1095.57 222.765 1093.22 222.765H1091.32V268.712ZM1123.35 283.898V207.726H1157.72V224.328H1140.83V236.925H1157.04V253.087H1140.83V267.15H1158.85V283.898H1123.35ZM1162.22 283.898L1170.52 207.726H1199.67L1207.82 283.898H1191.56L1190.44 270.031H1179.89L1178.92 283.898H1162.22ZM1184.48 221.398L1181.31 256.31H1188.83L1185.26 221.398H1184.48ZM1233.51 284.679C1225.66 284.679 1220 282.726 1216.51 278.82C1213.06 274.914 1211.34 268.696 1211.34 260.167V257.384H1228.33V262.511C1228.33 264.497 1228.62 266.059 1229.21 267.199C1229.83 268.306 1230.89 268.859 1232.38 268.859C1233.95 268.859 1235.02 268.452 1235.61 267.638C1236.22 266.792 1236.53 265.571 1236.53 263.976C1236.53 261.86 1235.82 260.07 1234.38 258.605C1232.99 257.14 1230.66 255.154 1227.4 252.648L1219.98 246.886C1216.82 244.445 1214.59 241.743 1213.29 238.781C1211.99 235.819 1211.34 232.222 1211.34 227.99C1211.34 221.382 1213.03 216.222 1216.42 212.511C1219.83 208.8 1224.77 206.945 1231.21 206.945C1239.09 206.945 1244.67 208.996 1247.96 213.097C1251.28 217.199 1252.94 223.221 1252.94 231.164H1235.51V226.964C1235.51 224.165 1234.21 222.765 1231.6 222.765C1230.3 222.765 1229.34 223.156 1228.72 223.937C1228.1 224.686 1227.79 225.662 1227.79 226.867C1227.79 228.071 1228.07 229.21 1228.62 230.285C1229.21 231.326 1230.54 232.694 1232.63 234.386L1242.54 242.443C1246.15 245.373 1248.89 248.449 1250.74 251.671C1252.6 254.894 1253.53 259.077 1253.53 264.22C1253.53 267.801 1252.87 271.154 1251.57 274.279C1250.3 277.404 1248.2 279.927 1245.27 281.847C1242.34 283.735 1238.42 284.679 1233.51 284.679Z" fill="#EDEFF2"/>
<path d="M1036.02 388.898L1344.02 432.4L1358.02 539.898H1036.02V388.898Z" fill="#191923"/>
<path d="M169.523 556.398L56.0234 431.898L192.023 406.898L264.523 501.398L169.523 556.398Z" fill="#191923" stroke="black"/>
<path d="M334.023 569.398L220.523 444.898L289.523 340.898L378.523 515.898L334.023 569.398Z" fill="#191923" stroke="black"/>
<path d="M439.523 569.398L326.023 444.898L395.023 340.898L484.023 515.898L439.523 569.398Z" fill="#191923" stroke="black"/>
<path d="M540.523 569.398L427.023 444.898L487.523 283.898L585.023 515.898L540.523 569.398Z" fill="#191923" stroke="black"/>
<path d="M625.523 569.398L512.023 444.898L581.023 340.898L670.023 515.898L625.523 569.398Z" fill="#191923" stroke="black"/>
<path d="M740.523 569.398L627.023 444.898L696.023 340.898L785.023 515.898L740.523 569.398Z" fill="#191923" stroke="black"/>
<path d="M826.523 569.398L713.023 444.898L782.023 340.898L871.023 515.898L826.523 569.398Z" fill="#191923" stroke="black"/>
<path d="M984.523 569.398L869.023 511.398L940.023 340.898L1029.02 515.898L984.523 569.398Z" fill="#191923" stroke="black"/>
<path d="M484.023 141.898L526.523 188.517V271.898L489.523 321.898L484.023 141.898Z" fill="#191923" stroke="black"/>
<path d="M321.023 141.898L363.523 188.517V271.898L326.523 321.898L321.023 141.898Z" fill="#191923" stroke="black"/>
<path d="M91.0234 340.898L133.523 387.517L91.0234 399.898V340.898Z" fill="#191923" stroke="black"/>
<path d="M179.523 180.398L209.523 215.898V267.398L147.523 321.898L58.0234 215.898L179.523 180.398Z" fill="#191923" stroke="black"/>
<path d="M570.023 203.898L612.523 250.517V333.898L586.023 359.398L570.023 203.898Z" fill="#191923" stroke="black"/>
<path d="M230.695 573.835C199.315 573.835 176.659 566.023 162.727 550.398C148.924 534.773 142.023 509.903 142.023 475.789V464.656H209.992V485.164C209.992 493.106 211.164 499.356 213.508 503.914C215.982 508.341 220.214 510.554 226.203 510.554C232.453 510.554 236.75 508.927 239.094 505.671C241.568 502.286 242.805 497.403 242.805 491.023C242.805 482.559 239.94 475.398 234.211 469.539C228.612 463.679 219.302 455.736 206.281 445.71L176.594 422.664C163.964 412.898 155.044 402.091 149.836 390.242C144.628 378.393 142.023 364.005 142.023 347.078C142.023 320.645 148.794 300.007 162.336 285.164C176.008 270.32 195.734 262.898 221.516 262.898C253.026 262.898 275.357 271.101 288.508 287.507C301.789 303.914 308.43 328.002 308.43 359.773H238.703V342.976C238.703 331.778 233.495 326.179 223.078 326.179C217.87 326.179 214.029 327.742 211.555 330.867C209.081 333.861 207.844 337.768 207.844 342.585C207.844 347.403 208.951 351.96 211.164 356.257C213.508 360.424 218.846 365.893 227.18 372.664L266.828 404.89C281.281 416.609 292.219 428.914 299.641 441.804C307.062 454.695 310.773 471.427 310.773 492C310.773 506.322 308.169 519.734 302.961 532.234C297.883 544.734 289.484 554.825 277.766 562.507C266.047 570.059 250.357 573.835 230.695 573.835Z" fill="#191923"/>
<path d="M333.82 570.71V266.023H438.508L467.414 447.664L496.125 266.023H601.789V570.71H538.898V360.75L499.445 570.71H437.727L395.93 360.359V570.71H333.82Z" fill="#191923"/>
<path d="M622.883 570.71L656.086 266.023H772.688L805.305 570.71H740.266L735.773 515.242H693.586L689.68 570.71H622.883ZM711.945 320.71L699.25 460.359H729.328L715.07 320.71H711.945Z" fill="#191923"/>
<path d="M826.398 570.71V266.023H895.148V485.71H965.852V570.71H826.398Z" fill="#191923"/>
<path d="M985.383 570.71V266.023H1054.13V485.71L1428.82 485.71V570.71H985.383Z" fill="#191923"/>
<path d="M101.516 139.648C133.501 139.648 157.006 147.973 171.033 165.462C184.968 182.676 191.68 207.618 191.68 239.773V243.023H115.453V222.976C115.453 217.822 114.249 214.562 112.417 212.592C110.626 210.667 107.723 209.429 103.078 209.429C98.5333 209.429 95.781 210.764 94.1025 212.884L94.082 212.911L94.0605 212.937C92.1748 215.22 91.0938 218.336 91.0938 222.585C91.0938 226.863 92.0677 230.892 94.0264 234.714C96.0601 238.296 100.955 243.418 109.229 250.141L148.878 282.368H148.877C163.564 294.276 174.794 306.872 182.457 320.182C190.251 333.719 194.023 351.065 194.023 372C194.023 386.726 191.344 400.565 185.961 413.484C180.623 426.607 171.787 437.201 159.548 445.225L159.526 445.239C147.109 453.241 130.736 457.085 110.695 457.085C78.8539 457.085 55.1033 449.162 40.3008 432.561L40.291 432.549C25.7189 416.053 18.7734 390.223 18.7734 355.789L18.7734 341.406H93.2422V365.164C93.2422 372.816 94.3767 378.468 96.374 382.379C98.1628 385.542 101.164 387.304 106.203 387.304C112.007 387.304 115.005 385.788 116.456 383.772L116.463 383.763L116.47 383.753C118.374 381.147 119.555 377.052 119.555 371.023C119.555 363.378 117.001 357.041 111.887 351.811L111.861 351.784C106.441 346.111 97.293 338.291 84.2988 328.286L84.2881 328.278L54.6055 305.235L53.4014 304.292C41.0669 294.511 32.1615 283.609 26.8604 271.549C21.4243 259.182 18.7734 244.323 18.7734 227.078C18.7734 200.097 25.6928 178.584 39.9346 162.973L39.9404 162.967L39.9453 162.961C54.3932 147.275 75.094 139.648 101.516 139.648ZM321.281 142.773L321.718 145.512L347.403 306.915L372.915 145.515L373.349 142.773H485.039V453.96H415.648V275.645L382.64 451.311L382.142 453.96H315.059L314.539 451.344L279.18 273.39V453.96H210.57L210.57 142.773L321.281 142.773ZM655.608 142.773L655.919 145.677L688.536 450.365L688.921 453.96H617.269L617.026 450.973L612.776 398.492H576.615L572.922 450.939L572.709 453.96H499.26L499.652 450.358L532.855 145.67L533.171 142.773H655.608ZM778.398 142.773V362.46H849.102V453.96H703.148V142.773L778.398 142.773ZM937.383 142.773V362.46L1312.07 362.46V453.96H862.133V142.773H937.383ZM582.809 337.109H605.729L593.604 218.353L582.809 337.109Z" fill="#EDEFF2" stroke="#191923" stroke-width="6.5"/>
<path d="M940.023 141.898L1053.52 266.398V359.898H940.023V141.898Z" fill="#191923" stroke="black"/>
<path d="M1315.02 359.398L1428.52 483.898V569.79H1315.02V359.398Z" fill="#191923"/>
<path d="M780.023 141.898L861.523 231.297V359.898H780.023V141.898Z" fill="#191923" stroke="black"/>
<path d="M658.023 141.898L700.523 188.517V271.898L674.023 297.398L658.023 141.898Z" fill="#191923" stroke="black"/>
<rect x="995.023" y="143" width="319" height="198" fill="#E144DC"/>
<path d="M1028.36 295V199.785H1049.12V295H1028.36ZM1057.66 295V199.785H1087.26C1094.99 199.785 1100.79 201.942 1104.66 206.255C1108.56 210.527 1110.52 216.794 1110.52 225.054V263.14C1110.52 273.312 1108.75 281.165 1105.21 286.699C1101.67 292.233 1095.44 295 1086.53 295H1057.66ZM1079.27 276.018H1082.99C1086.94 276.018 1088.91 274.106 1088.91 270.281V227.068C1088.91 223.487 1088.42 221.188 1087.45 220.171C1086.51 219.113 1084.58 218.584 1081.65 218.584H1079.27V276.018ZM1119.31 295V199.785H1162.27V220.537H1141.16V236.284H1161.42V256.487H1141.16V274.065H1163.68V295H1119.31ZM1167.89 295L1178.27 199.785H1214.7L1224.9 295H1204.57L1203.17 277.666H1189.98L1188.76 295H1167.89ZM1195.72 216.875L1191.75 260.515H1201.15L1196.7 216.875H1195.72ZM1257 295.977C1247.2 295.977 1240.12 293.535 1235.76 288.652C1231.45 283.77 1229.29 275.998 1229.29 265.337V261.858H1250.53V268.267C1250.53 270.749 1250.9 272.702 1251.63 274.126C1252.4 275.509 1253.73 276.201 1255.6 276.201C1257.55 276.201 1258.89 275.693 1259.63 274.675C1260.4 273.617 1260.79 272.091 1260.79 270.098C1260.79 267.453 1259.89 265.215 1258.1 263.384C1256.35 261.553 1253.44 259.071 1249.37 255.938L1240.09 248.735C1236.15 245.684 1233.36 242.306 1231.73 238.604C1230.11 234.901 1229.29 230.404 1229.29 225.115C1229.29 216.855 1231.41 210.405 1235.64 205.767C1239.91 201.128 1246.08 198.809 1254.13 198.809C1263.98 198.809 1270.96 201.372 1275.07 206.499C1279.22 211.626 1281.29 219.154 1281.29 229.082H1259.5V223.833C1259.5 220.334 1257.88 218.584 1254.62 218.584C1252.99 218.584 1251.79 219.072 1251.02 220.049C1250.25 220.985 1249.86 222.205 1249.86 223.711C1249.86 225.216 1250.21 226.641 1250.9 227.983C1251.63 229.285 1253.3 230.994 1255.9 233.11L1268.29 243.181C1272.81 246.843 1276.23 250.688 1278.55 254.717C1280.87 258.745 1282.03 263.974 1282.03 270.403C1282.03 274.879 1281.21 279.07 1279.58 282.976C1278 286.882 1275.37 290.036 1271.71 292.437C1268.05 294.797 1263.15 295.977 1257 295.977Z" fill="#EDEFF2"/>
<defs>
<filter id="filter0_d_75_56" x="0" y="36.0469" width="700.742" height="85.7344" filterUnits="userSpaceOnUse" color-interpolation-filters="sRGB">
<feFlood flood-opacity="0" result="BackgroundImageFix"/>
<feColorMatrix in="SourceAlpha" type="matrix" values="0 0 0 0 0 0 0 0 0 0 0 0 0 0 0 0 0 0 127 0" result="hardAlpha"/>
<feOffset dy="4"/>
<feGaussianBlur stdDeviation="2"/>
<feComposite in2="hardAlpha" operator="out"/>
<feColorMatrix type="matrix" values="0 0 0 0 0 0 0 0 0 0 0 0 0 0 0 0 0 0 0.25 0"/>
<feBlend mode="normal" in2="BackgroundImageFix" result="effect1_dropShadow_75_56"/>
<feBlend mode="normal" in="SourceGraphic" in2="effect1_dropShadow_75_56" result="shape"/>
</filter>
</defs>
</svg>
