<svg width="1429" height="574" viewBox="0 0 1429 574" fill="none" xmlns="http://www.w3.org/2000/svg">
<path d="M1036.02 278.898L1344.02 322.4L1358.02 429.898H1036.02V278.898Z" fill="#191923"/>
<path d="M169.523 446.398L56.0234 321.898L192.023 296.898L264.523 391.398L169.523 446.398Z" fill="#191923" stroke="black"/>
<path d="M334.023 459.398L220.523 334.898L289.523 230.898L378.523 405.898L334.023 459.398Z" fill="#191923" stroke="black"/>
<path d="M439.523 459.398L326.023 334.898L395.023 230.898L484.023 405.898L439.523 459.398Z" fill="#191923" stroke="black"/>
<path d="M540.523 459.398L427.023 334.898L487.523 173.898L585.023 405.898L540.523 459.398Z" fill="#191923" stroke="black"/>
<path d="M625.523 459.398L512.023 334.898L581.023 230.898L670.023 405.898L625.523 459.398Z" fill="#191923" stroke="black"/>
<path d="M740.523 459.398L627.023 334.898L696.023 230.898L785.023 405.898L740.523 459.398Z" fill="#191923" stroke="black"/>
<path d="M826.523 459.398L713.023 334.898L782.023 230.898L871.023 405.898L826.523 459.398Z" fill="#191923" stroke="black"/>
<path d="M984.523 459.398L869.023 401.398L940.023 230.898L1029.02 405.898L984.523 459.398Z" fill="#191923" stroke="black"/>
<path d="M230.695 463.835C199.315 463.835 176.659 456.023 162.727 440.398C148.924 424.773 142.023 399.903 142.023 365.789V354.656H209.992V375.164C209.992 383.106 211.164 389.356 213.508 393.914C215.982 398.341 220.214 400.554 226.203 400.554C232.453 400.554 236.75 398.927 239.094 395.671C241.568 392.286 242.805 387.403 242.805 381.023C242.805 372.559 239.94 365.398 234.211 359.539C228.612 353.679 219.302 345.736 206.281 335.71L176.594 312.664C163.964 302.898 155.044 292.091 149.836 280.242C144.628 268.393 142.023 254.005 142.023 237.078C142.023 210.645 148.794 190.007 162.336 175.164C176.008 160.32 195.734 152.898 221.516 152.898C253.026 152.898 275.357 161.101 288.508 177.507C301.789 193.914 308.43 218.002 308.43 249.773H238.703V232.976C238.703 221.778 233.495 216.179 223.078 216.179C217.87 216.179 214.029 217.742 211.555 220.867C209.081 223.861 207.844 227.768 207.844 232.585C207.844 237.403 208.951 241.96 211.164 246.257C213.508 250.424 218.846 255.893 227.18 262.664L266.828 294.89C281.281 306.609 292.219 318.914 299.641 331.804C307.062 344.695 310.773 361.427 310.773 382C310.773 396.322 308.169 409.734 302.961 422.234C297.883 434.734 289.484 444.825 277.766 452.507C266.047 460.059 250.357 463.835 230.695 463.835Z" fill="#191923"/>
<path d="M333.82 460.71V156.023H438.508L467.414 337.664L496.125 156.023H601.789V460.71H538.898V250.75L499.445 460.71H437.727L395.93 250.359V460.71H333.82Z" fill="#191923"/>
<path d="M622.883 460.71L656.086 156.023H772.688L805.305 460.71H740.266L735.773 405.242H693.586L689.68 460.71H622.883ZM711.945 210.71L699.25 350.359H729.328L715.07 210.71H711.945Z" fill="#191923"/>
<path d="M826.398 460.71V156.023H895.148V375.71H965.852V460.71H826.398Z" fill="#191923"/>
<path d="M985.383 460.71V156.023H1054.13V375.71H1428.82V460.71H985.383Z" fill="#191923"/>
<path d="M1315.02 249.398L1428.52 373.898V459.79H1315.02V249.398Z" fill="#191923"/>
<path d="M1314.02 33H995.023V231H1314.02V33Z" fill="#E144DC"/>
<path d="M1050.6 173.898V97.7263H1067.2V173.898H1050.6ZM1074.03 173.898V97.7263H1097.71C1103.9 97.7263 1108.54 99.4513 1111.63 102.902C1114.76 106.32 1116.32 111.333 1116.32 117.941V148.41C1116.32 156.548 1114.9 162.83 1112.07 167.257C1109.24 171.684 1104.26 173.898 1097.13 173.898H1074.03ZM1091.32 158.712H1094.3C1097.45 158.712 1099.03 157.182 1099.03 154.123V119.552C1099.03 116.688 1098.64 114.848 1097.86 114.035C1097.11 113.188 1095.57 112.765 1093.22 112.765H1091.32V158.712ZM1123.35 173.898V97.7263H1157.72V114.328H1140.83V126.925H1157.04V143.087H1140.83V157.15H1158.85V173.898H1123.35ZM1162.22 173.898L1170.52 97.7263H1199.67L1207.82 173.898H1191.56L1190.44 160.031H1179.89L1178.92 173.898H1162.22ZM1184.48 111.398L1181.31 146.31H1188.83L1185.26 111.398H1184.48ZM1233.51 174.679C1225.66 174.679 1220 172.726 1216.51 168.82C1213.06 164.914 1211.34 158.696 1211.34 150.167V147.384H1228.33V152.511C1228.33 154.497 1228.62 156.059 1229.21 157.199C1229.83 158.306 1230.89 158.859 1232.38 158.859C1233.95 158.859 1235.02 158.452 1235.61 157.638C1236.22 156.792 1236.53 155.571 1236.53 153.976C1236.53 151.86 1235.82 150.07 1234.38 148.605C1232.99 147.14 1230.66 145.154 1227.4 142.648L1219.98 136.886C1216.82 134.445 1214.59 131.743 1213.29 128.781C1211.99 125.819 1211.34 122.222 1211.34 117.99C1211.34 111.382 1213.03 106.222 1216.42 102.511C1219.83 98.8003 1224.77 96.9453 1231.21 96.9453C1239.09 96.9453 1244.67 98.9963 1247.96 103.097C1251.28 107.199 1252.94 113.221 1252.94 121.164H1235.51V116.964C1235.51 114.165 1234.21 112.765 1231.6 112.765C1230.3 112.765 1229.34 113.156 1228.72 113.937C1228.1 114.686 1227.79 115.662 1227.79 116.867C1227.79 118.071 1228.07 119.21 1228.62 120.285C1229.21 121.326 1230.54 122.694 1232.63 124.386L1242.54 132.443C1246.15 135.373 1248.89 138.449 1250.74 141.671C1252.6 144.894 1253.53 149.077 1253.53 154.22C1253.53 157.801 1252.87 161.154 1251.57 164.279C1250.3 167.404 1248.2 169.927 1245.27 171.847C1242.34 173.735 1238.42 174.679 1233.51 174.679Z" fill="#EDEFF2"/>
<path d="M484.023 31.8984L526.523 78.5174V161.898L489.523 211.898L484.023 31.8984Z" fill="#191923" stroke="black"/>
<path d="M321.023 31.8984L363.523 78.5174V161.898L326.523 211.898L321.023 31.8984Z" fill="#191923" stroke="black"/>
<path d="M91.0234 230.898L133.523 277.517L91.0234 289.898V230.898Z" fill="#191923" stroke="black"/>
<path d="M179.523 70.3984L209.523 105.898V157.398L147.523 211.898L58.0234 105.898L179.523 70.3984Z" fill="#191923" stroke="black"/>
<path d="M570.023 93.8984L612.523 140.517V223.898L586.023 249.398L570.023 93.8984Z" fill="#191923" stroke="black"/>
<path d="M101.516 29.6484C133.501 29.6484 157.006 37.9734 171.033 55.4624C184.968 72.6764 191.68 97.6184 191.68 129.773V133.023H115.453V112.976C115.453 107.822 114.249 104.562 112.417 102.592C110.626 100.667 107.723 99.4294 103.078 99.4294C98.5333 99.4294 95.781 100.764 94.1025 102.884L94.082 102.911L94.0605 102.937C92.1748 105.22 91.0938 108.336 91.0938 112.585C91.0938 116.863 92.0677 120.892 94.0264 124.714C96.0601 128.296 100.955 133.418 109.229 140.141L148.878 172.368H148.877C163.564 184.276 174.794 196.872 182.457 210.182C190.251 223.719 194.023 241.065 194.023 262C194.023 276.726 191.344 290.565 185.961 303.484C180.623 316.607 171.787 327.201 159.548 335.225L159.526 335.239C147.109 343.241 130.736 347.085 110.695 347.085C78.8539 347.085 55.1033 339.162 40.3008 322.561L40.291 322.549C25.7189 306.053 18.7734 280.223 18.7734 245.789V231.406H93.2422V255.164C93.2422 262.816 94.3767 268.468 96.374 272.379C98.1628 275.542 101.164 277.304 106.203 277.304C112.007 277.304 115.005 275.788 116.456 273.772L116.463 273.763L116.47 273.753C118.374 271.147 119.555 267.052 119.555 261.023C119.555 253.378 117.001 247.041 111.887 241.811L111.861 241.784C106.441 236.111 97.293 228.291 84.2988 218.286L84.2881 218.278L54.6055 195.235L53.4014 194.292C41.0669 184.511 32.1615 173.609 26.8604 161.549C21.4243 149.182 18.7734 134.323 18.7734 117.078C18.7734 90.0974 25.6928 68.5844 39.9346 52.9734L39.9404 52.9674L39.9453 52.9614C54.3932 37.2754 75.094 29.6484 101.516 29.6484ZM321.281 32.7734L321.718 35.5124L347.403 196.915L372.915 35.5154L373.349 32.7734H485.039V343.96H415.648V165.645L382.64 341.311L382.142 343.96H315.059L314.539 341.344L279.18 163.39V343.96H210.57V32.7734H321.281ZM655.608 32.7734L655.919 35.6774L688.536 340.365L688.921 343.96H617.269L617.026 340.973L612.776 288.492H576.615L572.922 340.939L572.709 343.96H499.26L499.652 340.358L532.855 35.6704L533.171 32.7734H655.608ZM778.398 32.7734V252.46H849.102V343.96H703.148V32.7734H778.398ZM937.383 32.7734V252.46H1312.07V343.96H862.133V32.7734H937.383ZM582.809 227.109H605.729L593.604 108.353L582.809 227.109Z" fill="#EDEFF2" stroke="#191923" stroke-width="6.5"/>
<path d="M940.023 31.8984L1053.52 156.398V249.898H940.023V31.8984Z" fill="#191923" stroke="black"/>
<path d="M780.023 31.8984L861.523 121.297V249.898H780.023V31.8984Z" fill="#191923" stroke="black"/>
<path d="M658.023 31.8984L700.523 78.5174V161.898L674.023 187.398L658.023 31.8984Z" fill="#191923" stroke="black"/>
<path d="M1314.02 33H995.023V231H1314.02V33Z" fill="#E144DC"/>
<path d="M1028.36 185V89.7846H1049.12V185H1028.36ZM1057.66 185V89.7846H1087.26C1094.99 89.7846 1100.79 91.9416 1104.66 96.2546C1108.56 100.527 1110.52 106.794 1110.52 115.054V153.14C1110.52 163.312 1108.75 171.165 1105.21 176.699C1101.67 182.233 1095.44 185 1086.53 185H1057.66ZM1079.27 166.018H1082.99C1086.94 166.018 1088.91 164.106 1088.91 160.281V117.068C1088.91 113.487 1088.42 111.188 1087.45 110.171C1086.51 109.113 1084.58 108.584 1081.65 108.584H1079.27V166.018ZM1119.31 185V89.7846H1162.27V110.537H1141.16V126.284H1161.42V146.487H1141.16V164.065H1163.68V185H1119.31ZM1167.89 185L1178.27 89.7846H1214.7L1224.9 185H1204.57L1203.17 167.666H1189.98L1188.76 185H1167.89ZM1195.72 106.875L1191.75 150.515H1201.15L1196.7 106.875H1195.72ZM1257 185.977C1247.2 185.977 1240.12 183.535 1235.76 178.652C1231.45 173.77 1229.29 165.998 1229.29 155.337V151.858H1250.53V158.267C1250.53 160.749 1250.9 162.702 1251.63 164.126C1252.4 165.509 1253.73 166.201 1255.6 166.201C1257.55 166.201 1258.89 165.693 1259.63 164.675C1260.4 163.617 1260.79 162.091 1260.79 160.098C1260.79 157.453 1259.89 155.215 1258.1 153.384C1256.35 151.553 1253.44 149.071 1249.37 145.938L1240.09 138.735C1236.15 135.684 1233.36 132.306 1231.73 128.604C1230.11 124.901 1229.29 120.404 1229.29 115.115C1229.29 106.855 1231.41 100.405 1235.64 95.7666C1239.91 91.1276 1246.08 88.8086 1254.13 88.8086C1263.98 88.8086 1270.96 91.3716 1275.07 96.4986C1279.22 101.626 1281.29 109.154 1281.29 119.082H1259.5V113.833C1259.5 110.334 1257.88 108.584 1254.62 108.584C1252.99 108.584 1251.79 109.072 1251.02 110.049C1250.25 110.985 1249.86 112.205 1249.86 113.711C1249.86 115.216 1250.21 116.641 1250.9 117.983C1251.63 119.285 1253.3 120.994 1255.9 123.11L1268.29 133.181C1272.81 136.843 1276.23 140.688 1278.55 144.717C1280.87 148.745 1282.03 153.974 1282.03 160.403C1282.03 164.879 1281.21 169.07 1279.58 172.976C1278 176.882 1275.37 180.036 1271.71 182.437C1268.05 184.797 1263.15 185.977 1257 185.977Z" fill="#EDEFF2"/>
</svg>
